<svg xmlns="http://www.w3.org/2000/svg" width="379" height="68" fill="none"><g clip-path="url(#a)"><path fill="#4A84F5" d="M33.2 1.26v31.45c0 .1-.08.2-.17.2H1.26c-.75 0-1.16-.96-.68-1.59l12.84-18.15c.4-.52 1.06-.53 1.46 0l4.66 4.34a.93.93 0 0 0 1.47-.03L31.6.66c.53-.7 1.59-.3 1.59.6Z"/><path fill="#28285A" d="M39.1 11.3v26.98a.7.7 0 0 1-.7.7H11.3a.7.7 0 0 0-.7.7 28.5 28.5 0 0 0 30.28 27.85c13.8-.84 25.8-12.83 26.65-26.63a28.5 28.5 0 0 0-27.74-30.3.7.7 0 0 0-.71.7h.02ZM106.58 21.56c9.1 0 13.15 5.25 13.15 11.4s-4.05 11.4-13.15 11.4h-6.3v12.65h-8.2V21.56h14.5Zm4.75 11.4c0-2.7-1.45-4.5-5.25-4.5h-5.85v9h5.85c3.8 0 5.25-1.8 5.25-4.5ZM126.02 54.22c-2.6-2.6-4.1-6.3-4.1-10.55 0-5.1 1.85-8.75 4.65-11.15 2.35-2 5.45-2.9 8.6-2.9 8.35 0 12.75 5.75 12.75 13.9 0 1.1-.1 2.15-.15 2.45h-17.8c0 2.95 1.9 5.7 5.4 5.7 3.5 0 4.45-1.65 4.8-3.05h7.2c-1.2 5.75-6.25 9.1-12.1 9.1-3.8 0-7-1.25-9.25-3.5Zm13.95-13.35c0-3.2-1.65-5.2-4.85-5.2-3.2 0-5.05 2.5-5.15 5.2h10ZM151.22 49.41c0-5.15 4-8.15 9.4-8.65l6.7-.6v-1.2c0-1.75-.65-3.6-3.95-3.6-2.35 0-3.95 1.35-4 3.4h-7.3c.3-5.2 4.5-9.15 11.55-9.15 6.1 0 11.45 2.55 11.45 10.85v8.9c0 1.3.75 1.7 1.7 1.7.25 0 .45 0 .8-.05v5.7c-.85.45-2.1.75-3.45.75-2.7 0-5.1-1.4-5.65-4-1.45 2.75-4.5 4.25-7.7 4.25-6.15 0-9.55-4-9.55-8.3Zm16.1-3.1v-.85l-5.4.45c-1.95.15-3.1 1.25-3.1 2.85 0 1.8 1.4 3 3.2 3 4.2 0 5.3-2.7 5.3-5.45ZM181.52 20.81h8.05v19.2l8.25-9.7h10.1l-10.1 10.9 10.3 15.8h-9.5l-6.3-10.15-2.75 3v7.15h-8.05v-36.2ZM208.52 48.51h7.45c.15 2.3 2.25 3.15 4.5 3.15s4.15-.8 4.15-2.5c0-1.5-1.15-1.95-2.9-2.2l-4.35-.6c-5.15-.7-8.1-3.55-8.1-7.8 0-5.45 5.35-8.95 11.35-8.95 6.3 0 10.65 3.2 11 8.7h-7.45c-.15-2.25-1.8-3-3.8-3-2 0-3.45.95-3.45 2.45 0 1.1.7 1.8 2.45 2.05l5 .7c4.55.65 7.85 3.5 7.85 7.95 0 6-5.6 9.25-11.75 9.25-6.6 0-11.7-3.4-11.95-9.2ZM296.13 21.56c9.1 0 13.15 5.25 13.15 11.4s-4.05 11.4-13.15 11.4h-6.3v12.65h-8.2V21.56h14.5Zm4.75 11.4c0-2.7-1.45-4.5-5.25-4.5h-5.85v9h5.85c3.8 0 5.25-1.8 5.25-4.5ZM321.43 20.81v6.65h-8.15v-6.65h8.15Zm0 9.5v26.7h-8.15v-26.7h8.15ZM330.33 54.22c-2.6-2.6-4.1-6.3-4.1-10.55 0-5.1 1.85-8.75 4.65-11.15 2.35-2 5.45-2.9 8.6-2.9 8.35 0 12.75 5.75 12.75 13.9 0 1.1-.1 2.15-.15 2.45h-17.8c0 2.95 1.9 5.7 5.4 5.7 3.5 0 4.45-1.65 4.8-3.05h7.2c-1.2 5.75-6.25 9.1-12.1 9.1-3.8 0-7-1.25-9.25-3.5Zm13.95-13.35c0-3.2-1.65-5.2-4.85-5.2-3.2 0-5.05 2.5-5.15 5.2h10ZM355.28 48.51h7.45c.15 2.3 2.25 3.15 4.5 3.15s4.15-.8 4.15-2.5c0-1.5-1.15-1.95-2.9-2.2l-4.35-.6c-5.15-.7-8.1-3.55-8.1-7.8 0-5.45 5.35-8.95 11.35-8.95 6.3 0 10.65 3.2 11 8.7h-7.45c-.15-2.25-1.8-3-3.8-3-2 0-3.45.95-3.45 2.45 0 1.1.7 1.8 2.45 2.05l5 .7c4.55.65 7.85 3.5 7.85 7.95 0 6-5.6 9.25-11.75 9.25-6.6 0-11.7-3.4-11.95-9.2Z"/><path fill="#4A84F5" d="m255.42 37.34-3.45-3.57c-1.1-1.1-2-2.5-2-3.85 0-2.1 1.55-3 3.1-3 1.65 0 2.95 1.1 2.95 3.05 0 .25-.02.5-.06.72h7.2c.02-.29.06-.57.06-.88 0-5.55-4.8-8.95-10.25-8.95s-10.1 3.45-10.1 9.1c0 2.55 1.05 4.7 2.9 6.7l.6.65-.7.45c-3.55 2.25-5.3 5.35-5.3 9.25 0 6.35 5.7 10.7 12.2 10.7 3.35 0 6.7-1.2 9.4-3.55l2.4 2.85h9.1l-7.1-7.95c1.25-1.9 1.75-4 2-5.85h4v-5.85h-10.3v.9c0 2-.1 4.2-.55 5.75l-4.7-5.05m-4 12.35c-2.75 0-5.15-1.65-5.15-4.8 0-1.8 1-3.25 2.35-4.15l.6-.4 6.8 7.5a6.24 6.24 0 0 1-4.6 1.85Z"/></g><defs><clipPath id="a"><path fill="#fff" d="M.37.3h378.61v67.3H.37z"/></clipPath></defs></svg>
